<?xml version="1.0" standalone="no"?>
<!DOCTYPE svg PUBLIC "-//W3C//DTD SVG 20010904//EN"
 "http://www.w3.org/TR/2001/REC-SVG-20010904/DTD/svg10.dtd">
<svg version="1.0" xmlns="http://www.w3.org/2000/svg"
 width="260.000000pt" height="260.000000pt" viewBox="0 0 260.000000 260.000000"
 preserveAspectRatio="xMidYMid meet">
<metadata>
Created by potrace 1.14, written by Peter Selinger 2001-2017
</metadata>
<g transform="translate(0.000000,260.000000) scale(0.100000,-0.100000)"
fill="#000000" stroke="none">
<path d="M1165 2593 c-71 -8 -226 -36 -300 -54 -44 -12 -88 -23 -97 -25 -10
-2 -27 -6 -38 -9 -11 -3 -28 -7 -37 -9 -10 -2 -30 -9 -46 -15 -15 -6 -38 -13
-50 -15 -36 -7 -138 -45 -231 -86 -26 -12 -54 -19 -61 -16 -12 4 -194 -92
-226 -120 -11 -10 -14 -29 -12 -75 2 -34 7 -67 11 -73 5 -6 10 -33 11 -61 2
-27 6 -54 11 -60 4 -5 7 -17 8 -25 0 -8 7 -49 17 -90 9 -41 19 -86 21 -100 2
-14 18 -73 34 -132 17 -59 30 -110 28 -115 -1 -8 14 -49 33 -85 5 -10 9 -22 9
-27 0 -5 5 -22 12 -38 6 -15 12 -33 14 -40 6 -32 29 -89 58 -150 18 -38 38
-85 45 -105 10 -31 34 -76 137 -268 8 -14 14 -31 14 -37 0 -7 4 -13 8 -13 5 0
15 -12 23 -27 37 -72 233 -335 301 -405 21 -21 38 -43 38 -48 0 -6 3 -10 8
-10 4 0 43 -34 87 -76 44 -41 113 -100 154 -130 70 -51 76 -54 134 -54 55 0
67 4 120 41 32 23 70 52 84 65 15 14 40 35 56 47 16 12 38 31 48 42 10 12 61
64 111 116 108 110 155 170 263 329 42 63 81 116 86 118 5 2 9 9 9 16 0 13 58
128 94 185 36 57 67 131 65 155 0 5 3 12 8 15 17 12 63 122 102 242 76 232 81
251 75 260 -3 5 -1 9 3 9 5 0 9 8 10 18 1 10 11 46 23 81 11 35 19 68 17 75
-2 6 2 26 10 44 7 17 10 32 7 32 -4 0 -2 6 3 13 9 11 26 100 38 202 3 22 7 56
10 76 8 50 -6 61 -165 140 -93 45 -219 99 -235 99 -5 0 -23 7 -39 15 -29 15
-254 81 -351 103 -47 11 -170 33 -260 47 -44 7 -263 13 -310 8z"/>
</g>
</svg>
